<svg width="18" height="23" viewBox="0 0 18 23" fill="none" xmlns="http://www.w3.org/2000/svg">
<path d="M8.888 23C8.376 23 7.96 22.8507 7.64 22.552C7.34133 22.232 7.192 21.8373 7.192 21.368V2.2H10.616V21.368C10.616 21.8373 10.4453 22.232 10.104 22.552C9.784 22.8507 9.37867 23 8.888 23ZM1.624 3.672C1.176 3.672 0.792 3.53333 0.472 3.256C0.152 2.95733 -0.00799996 2.57333 -0.00799996 2.104C-0.00799996 1.656 0.152 1.29333 0.472 1.016C0.792 0.738665 1.176 0.599998 1.624 0.599998H16.184C16.632 0.599998 17.0053 0.749332 17.304 1.048C17.624 1.32533 17.784 1.688 17.784 2.136C17.784 2.60533 17.624 2.97867 17.304 3.256C17.0053 3.53333 16.632 3.672 16.184 3.672H1.624Z" fill="#F2677F"/>
</svg>
